<svg width="16" height="16" viewBox="0 0 16 16" fill="none" xmlns="http://www.w3.org/2000/svg">
<g clip-path="url(#clip0_1_4113)">
<path d="M12.8001 5.72907C12.8005 5.84861 12.7779 5.96672 12.734 6.07472C12.6901 6.18272 12.626 6.27788 12.5465 6.35318L8.43256 10.2179C8.30987 10.3356 8.15599 10.3999 7.99717 10.3999C7.83836 10.3999 7.68447 10.3356 7.56178 10.2179L3.44789 6.21716C3.30787 6.08134 3.21981 5.88618 3.2031 5.6746C3.18638 5.46302 3.24237 5.25236 3.35875 5.08896C3.47513 4.92555 3.64237 4.82279 3.82368 4.80329C4.00498 4.78378 4.1855 4.84912 4.32552 4.98494L8.0006 8.56158L11.6757 5.10496C11.7763 5.00711 11.8989 4.94496 12.0288 4.92585C12.1588 4.90675 12.2907 4.93149 12.409 4.99714C12.5273 5.0628 12.627 5.16663 12.6963 5.29634C12.7657 5.42605 12.8017 5.57622 12.8001 5.72907Z" fill="#727E94"/>
</g>
<defs>
<clipPath id="clip0_1_4113">
<rect width="16" height="16" fill="white" transform="translate(0 16) rotate(-90)"/>
</clipPath>
</defs>
</svg>
