<svg width="16" height="16" viewBox="0 0 16 16" fill="none" xmlns="http://www.w3.org/2000/svg">
<g clip-path="url(#clip0_1_3932)">
<path d="M3.19985 10.2709C3.1995 10.1514 3.22211 10.0333 3.26601 9.92528C3.30991 9.81728 3.37399 9.72212 3.45354 9.64682L7.56744 5.78212C7.69013 5.66443 7.84401 5.6001 8.00283 5.6001C8.16164 5.6001 8.31553 5.66443 8.43822 5.78212L12.5521 9.78284C12.6921 9.91866 12.7802 10.1138 12.7969 10.3254C12.8136 10.537 12.7576 10.7476 12.6412 10.911C12.5249 11.0744 12.3576 11.1772 12.1763 11.1967C11.995 11.2162 11.8145 11.1509 11.6745 11.0151L7.9994 7.43842L4.32432 10.895C4.22367 10.9929 4.10112 11.055 3.97116 11.0741C3.84119 11.0933 3.70926 11.0685 3.59096 11.0029C3.47267 10.9372 3.37297 10.8334 3.30366 10.7037C3.23434 10.574 3.19832 10.4238 3.19985 10.2709Z" fill="#727E94"/>
</g>
<defs>
<clipPath id="clip0_1_3932">
<rect width="16" height="16" fill="white" transform="translate(16) rotate(90)"/>
</clipPath>
</defs>
</svg>
