<svg width="20" height="20" viewBox="0 0 20 20" fill="none" xmlns="http://www.w3.org/2000/svg">
<path d="M7.74238 17.5C7.05389 17.4967 6.37294 17.3565 5.73916 17.0876C5.10538 16.8186 4.53143 16.4263 4.05071 15.9334C3.5736 15.4812 3.19034 14.9393 2.92286 14.3389C2.65538 13.7384 2.50894 13.091 2.49191 12.4339C2.47488 11.7768 2.5876 11.1227 2.82362 10.5092C3.05964 9.89565 3.41432 9.33469 3.86738 8.85838L10.0007 2.66671C10.3282 2.33978 10.7186 2.08261 11.1483 1.91074C11.578 1.73887 12.0381 1.65585 12.5007 1.66671C12.9963 1.6684 13.4866 1.76875 13.943 1.9619C14.3994 2.15505 14.8128 2.43714 15.159 2.79171C15.8482 3.45525 16.2479 4.36381 16.2713 5.3202C16.2947 6.27658 15.9399 7.2036 15.284 7.90005L9.11738 14.0917C8.91986 14.2906 8.68482 14.4482 8.4259 14.5555C8.16697 14.6628 7.88932 14.7176 7.60904 14.7167C7.30627 14.7171 7.00649 14.6569 6.72739 14.5395C6.44829 14.4221 6.19554 14.25 5.98404 14.0334C5.56132 13.6241 5.31719 13.0645 5.3047 12.4763C5.29222 11.888 5.51239 11.3186 5.91738 10.8917L11.609 5.17505C11.771 5.06747 11.9655 5.01992 12.1589 5.04064C12.3522 5.06137 12.5322 5.14905 12.6677 5.28852C12.8033 5.42798 12.8857 5.61044 12.9009 5.8043C12.916 5.99817 12.8629 6.19123 12.7507 6.35005L7.05904 12.0667C6.96413 12.1811 6.91794 12.3281 6.93041 12.4762C6.94288 12.6243 7.01301 12.7615 7.12571 12.8584C7.24297 12.9765 7.40105 13.045 7.56738 13.05C7.62899 13.0509 7.69017 13.0396 7.74738 13.0167C7.80459 12.9938 7.8567 12.9598 7.90071 12.9167L14.059 6.72505C14.4047 6.34103 14.5854 5.83641 14.562 5.32026C14.5386 4.80411 14.313 4.31789 13.934 3.96672C13.582 3.60125 13.1033 3.3846 12.5964 3.36135C12.0896 3.3381 11.593 3.51001 11.209 3.84172L5.05071 10C4.75125 10.3217 4.51834 10.6994 4.3654 11.1114C4.21245 11.5234 4.14249 11.9615 4.15953 12.4007C4.17657 12.8398 4.28027 13.2713 4.46468 13.6702C4.64909 14.0691 4.91056 14.4276 5.23404 14.725C5.55844 15.0613 5.9466 15.3296 6.37584 15.5142C6.80509 15.6987 7.26681 15.7959 7.73404 15.8C8.13689 15.8033 8.53642 15.727 8.90967 15.5754C9.28292 15.4238 9.62255 15.1999 9.90904 14.9167L16.0674 8.72505C16.1445 8.64735 16.2362 8.58561 16.3372 8.54335C16.4383 8.50109 16.5466 8.47914 16.6561 8.47875C16.7656 8.47836 16.8741 8.49955 16.9754 8.54109C17.0767 8.58264 17.1688 8.64373 17.2465 8.72088C17.3242 8.79803 17.386 8.88973 17.4282 8.99075C17.4705 9.09176 17.4925 9.20011 17.4928 9.3096C17.4932 9.4191 17.472 9.5276 17.4305 9.62891C17.389 9.73022 17.3279 9.82235 17.2507 9.90005L11.0924 16.0917C10.6551 16.5367 10.1338 16.8903 9.55872 17.1321C8.98363 17.3739 8.36622 17.4989 7.74238 17.5Z" fill="#727E94"/>
</svg>
