<svg width="20" height="20" viewBox="0 0 20 20" fill="none" xmlns="http://www.w3.org/2000/svg">
<path d="M9.99984 18.3999C9.74984 18.3999 9.49984 18.3416 9.2915 18.2249C7.73317 17.3749 4.9915 16.4749 3.27484 16.2499L3.03317 16.2166C1.9415 16.0833 1.0415 15.0583 1.0415 13.9499V3.88326C1.0415 3.22492 1.29984 2.62493 1.77484 2.19159C2.24984 1.75826 2.8665 1.54993 3.5165 1.60826C5.34984 1.74993 8.1165 2.66659 9.68317 3.64993L9.88317 3.76659C9.9415 3.79993 10.0665 3.79993 10.1165 3.77493L10.2498 3.69159C11.8165 2.70826 14.5832 1.77493 16.4248 1.61659C16.4415 1.61659 16.5082 1.61659 16.5248 1.61659C17.1332 1.55826 17.7582 1.77493 18.2248 2.20826C18.6998 2.64159 18.9582 3.24159 18.9582 3.89992V13.9583C18.9582 15.0749 18.0582 16.0916 16.9582 16.2249L16.6832 16.2583C14.9665 16.4833 12.2165 17.3916 10.6915 18.2333C10.4915 18.3499 10.2498 18.3999 9.99984 18.3999ZM3.3165 2.84993C3.04984 2.84993 2.80817 2.94159 2.6165 3.11659C2.40817 3.30826 2.2915 3.58326 2.2915 3.88326V13.9499C2.2915 14.4416 2.7165 14.9166 3.1915 14.9833L3.4415 15.0166C5.3165 15.2666 8.1915 16.2083 9.85817 17.1166C9.93317 17.1499 10.0415 17.1583 10.0832 17.1416C11.7498 16.2166 14.6415 15.2666 16.5248 15.0166L16.8082 14.9833C17.2832 14.9249 17.7082 14.4416 17.7082 13.9499V3.89159C17.7082 3.58326 17.5915 3.31659 17.3832 3.11659C17.1665 2.92493 16.8915 2.83326 16.5832 2.84993C16.5665 2.84993 16.4998 2.84993 16.4832 2.84993C14.8915 2.99159 12.3248 3.84993 10.9248 4.72493L10.7915 4.81659C10.3332 5.09993 9.68317 5.09993 9.2415 4.82493L9.0415 4.70826C7.6165 3.83326 5.04984 2.98326 3.4165 2.84993C3.38317 2.84993 3.34984 2.84993 3.3165 2.84993Z" fill="#727E94"/>
<path d="M10 17.7C9.65833 17.7 9.375 17.4166 9.375 17.075V4.57495C9.375 4.23328 9.65833 3.94995 10 3.94995C10.3417 3.94995 10.625 4.23328 10.625 4.57495V17.075C10.625 17.425 10.3417 17.7 10 17.7Z" fill="#727E94"/>
<path d="M6.4585 7.69995H4.5835C4.24183 7.69995 3.9585 7.41662 3.9585 7.07495C3.9585 6.73328 4.24183 6.44995 4.5835 6.44995H6.4585C6.80016 6.44995 7.0835 6.73328 7.0835 7.07495C7.0835 7.41662 6.80016 7.69995 6.4585 7.69995Z" fill="#727E94"/>
<path d="M7.0835 10.2H4.5835C4.24183 10.2 3.9585 9.91662 3.9585 9.57495C3.9585 9.23328 4.24183 8.94995 4.5835 8.94995H7.0835C7.42516 8.94995 7.7085 9.23328 7.7085 9.57495C7.7085 9.91662 7.42516 10.2 7.0835 10.2Z" fill="#727E94"/>
</svg>
