<svg width="20" height="20" viewBox="0 0 20 20" fill="none" xmlns="http://www.w3.org/2000/svg">
<path d="M13.3332 18.9583H6.66653C2.81653 18.9583 2.09986 17.1666 1.91653 15.425L1.29153 8.74997C1.19986 7.87497 1.17486 6.5833 2.04153 5.61663C2.79153 4.7833 4.0332 4.3833 5.8332 4.3833H14.1665C15.9749 4.3833 17.2165 4.79163 17.9582 5.61663C18.8249 6.5833 18.7999 7.87497 18.7082 8.7583L18.0832 15.4166C17.8999 17.1666 17.1832 18.9583 13.3332 18.9583ZM5.8332 5.62497C4.42486 5.62497 3.4582 5.89997 2.96653 6.44997C2.5582 6.89997 2.42486 7.59163 2.5332 8.62497L3.1582 15.3C3.29986 16.6166 3.6582 17.7083 6.66653 17.7083H13.3332C16.3332 17.7083 16.6999 16.6166 16.8415 15.2916L17.4665 8.6333C17.5749 7.59163 17.4415 6.89997 17.0332 6.44997C16.5415 5.89997 15.5749 5.62497 14.1665 5.62497H5.8332Z" fill="#727E94"/>
<path d="M13.3332 5.62508C12.9915 5.62508 12.7082 5.34175 12.7082 5.00008V4.33341C12.7082 2.85008 12.7082 2.29175 10.6665 2.29175H9.33317C7.2915 2.29175 7.2915 2.85008 7.2915 4.33341V5.00008C7.2915 5.34175 7.00817 5.62508 6.6665 5.62508C6.32484 5.62508 6.0415 5.34175 6.0415 5.00008V4.33341C6.0415 2.86675 6.0415 1.04175 9.33317 1.04175H10.6665C13.9582 1.04175 13.9582 2.86675 13.9582 4.33341V5.00008C13.9582 5.34175 13.6748 5.62508 13.3332 5.62508Z" fill="#727E94"/>
<path d="M10.0002 13.9583C7.7085 13.9583 7.7085 12.5417 7.7085 11.6917V10.8333C7.7085 9.65833 7.99183 9.375 9.16683 9.375H10.8335C12.0085 9.375 12.2918 9.65833 12.2918 10.8333V11.6667C12.2918 12.5333 12.2918 13.9583 10.0002 13.9583ZM8.9585 10.625C8.9585 10.6917 8.9585 10.7667 8.9585 10.8333V11.6917C8.9585 12.55 8.9585 12.7083 10.0002 12.7083C11.0418 12.7083 11.0418 12.575 11.0418 11.6833V10.8333C11.0418 10.7667 11.0418 10.6917 11.0418 10.625C10.9752 10.625 10.9002 10.625 10.8335 10.625H9.16683C9.10016 10.625 9.02516 10.625 8.9585 10.625Z" fill="#727E94"/>
<path d="M11.6667 12.3084C11.3584 12.3084 11.0834 12.075 11.0501 11.7584C11.0084 11.4167 11.2501 11.1 11.5917 11.0584C13.7917 10.7834 15.9001 9.95004 17.6751 8.65837C17.9501 8.45004 18.3417 8.5167 18.5501 8.80004C18.7501 9.07504 18.6917 9.4667 18.4084 9.67504C16.4584 11.0917 14.1584 12 11.7417 12.3084C11.7167 12.3084 11.6917 12.3084 11.6667 12.3084Z" fill="#727E94"/>
<path d="M8.33345 12.3167C8.30845 12.3167 8.28345 12.3167 8.25845 12.3167C5.97511 12.0583 3.75011 11.225 1.82511 9.90833C1.54178 9.71667 1.46678 9.325 1.65845 9.04167C1.85011 8.75833 2.24178 8.68333 2.52511 8.875C4.28345 10.075 6.30845 10.8333 8.39178 11.075C8.73345 11.1167 8.98345 11.425 8.94178 11.7667C8.91678 12.0833 8.65011 12.3167 8.33345 12.3167Z" fill="#727E94"/>
</svg>
