<svg width="28" height="28" viewBox="0 0 28 28" fill="none" xmlns="http://www.w3.org/2000/svg">
<path d="M26.5367 5.83272V20.1244C26.5356 21.5164 25.9821 22.8512 24.9978 23.8355C24.0135 24.8198 22.6788 25.3733 21.2867 25.3744H4.66171C4.24031 25.3746 3.82301 25.2918 3.43365 25.1306C3.04429 24.9695 2.69051 24.7332 2.39254 24.4352C2.09458 24.1372 1.85826 23.7835 1.69711 23.3941C1.53596 23.0048 1.45314 22.5874 1.45337 22.1661V5.83272C1.45246 5.13358 1.67988 4.45326 2.10105 3.8952C2.52222 3.33715 3.11411 2.9319 3.78671 2.74106C4.07248 2.66639 4.36636 2.62721 4.66171 2.62439H23.3284C23.7498 2.62415 24.1671 2.70697 24.5564 2.86812C24.9458 3.02926 25.2996 3.26558 25.5975 3.56355C25.8955 3.86152 26.1318 4.2153 26.293 4.60466C26.4541 4.99402 26.5369 5.41133 26.5367 5.83272Z" fill="#D8D8D8"/>
<path d="M26.5388 5.83309V20.1248C26.5421 21.1638 26.2332 22.1799 25.6522 23.0414H11.4656C10.4571 23.0426 9.45835 22.8449 8.52644 22.4595C7.59452 22.0741 6.74777 21.5087 6.03468 20.7956C5.3216 20.0825 4.75617 19.2358 4.3708 18.3039C3.98542 17.372 3.78765 16.3732 3.78882 15.3648V2.74142C4.07459 2.66676 4.36847 2.62757 4.66382 2.62476H23.3305C23.7519 2.62451 24.1692 2.70733 24.5586 2.86848C24.9479 3.02963 25.3017 3.26595 25.5997 3.56391C25.8976 3.86188 26.134 4.21566 26.2951 4.60503C26.4562 4.99439 26.5391 5.4117 26.5388 5.83309Z" fill="#F5F5F5"/>
<path d="M26.5367 5.83273V10.2077H1.45337V5.83273C1.45246 5.13358 1.67988 4.45326 2.10105 3.89521C2.52222 3.33716 3.11411 2.9319 3.78671 2.74107C3.92685 2.70607 4.06671 2.68273 4.21851 2.6594C4.36505 2.63572 4.51327 2.62401 4.66171 2.6244H23.3284C23.7498 2.62416 24.1671 2.70698 24.5564 2.86813C24.9458 3.02927 25.2996 3.26559 25.5975 3.56356C25.8955 3.86153 26.1318 4.21531 26.293 4.60467C26.4541 4.99403 26.5369 5.41134 26.5367 5.83273Z" fill="#F3395E"/>
<path d="M26.5388 5.8331V10.2081H3.78882V2.74143C3.92896 2.70643 4.06882 2.6831 4.22063 2.65977C4.36716 2.63609 4.51538 2.62438 4.66382 2.62477H23.3305C23.7519 2.62452 24.1692 2.70734 24.5585 2.86849C24.9479 3.02964 25.3017 3.26595 25.5997 3.56392C25.8976 3.86189 26.1339 4.21567 26.2951 4.60504C26.4562 4.9944 26.5391 5.41171 26.5388 5.8331Z" fill="#FC5371"/>
<path d="M8.16431 7.58191C9.1308 7.58191 9.91431 6.79841 9.91431 5.83191C9.91431 4.86541 9.1308 4.08191 8.16431 4.08191C7.19781 4.08191 6.41431 4.86541 6.41431 5.83191C6.41431 6.79841 7.19781 7.58191 8.16431 7.58191Z" fill="white"/>
<path d="M13.9998 7.58191C14.9663 7.58191 15.7498 6.79841 15.7498 5.83191C15.7498 4.86541 14.9663 4.08191 13.9998 4.08191C13.0333 4.08191 12.2498 4.86541 12.2498 5.83191C12.2498 6.79841 13.0333 7.58191 13.9998 7.58191Z" fill="white"/>
<path d="M19.8289 7.58191C20.7954 7.58191 21.5789 6.79841 21.5789 5.83191C21.5789 4.86541 20.7954 4.08191 19.8289 4.08191C18.8624 4.08191 18.0789 4.86541 18.0789 5.83191C18.0789 6.79841 18.8624 7.58191 19.8289 7.58191Z" fill="white"/>
<path d="M8.16431 6.70691C7.93226 6.70685 7.70974 6.61464 7.54566 6.45056C7.38158 6.28648 7.28937 6.06395 7.28931 5.83191V2.33191C7.28931 2.09984 7.38149 1.87729 7.54559 1.71319C7.70968 1.5491 7.93224 1.45691 8.16431 1.45691C8.39637 1.45691 8.61893 1.5491 8.78303 1.71319C8.94712 1.87729 9.03931 2.09984 9.03931 2.33191V5.83191C9.03924 6.06395 8.94704 6.28648 8.78296 6.45056C8.61888 6.61464 8.39635 6.70685 8.16431 6.70691Z" fill="#F1AE15"/>
<path d="M13.9998 6.70691C13.7677 6.70685 13.5452 6.61464 13.3811 6.45056C13.217 6.28648 13.1248 6.06395 13.1248 5.83191V2.33191C13.1248 2.09984 13.2169 1.87729 13.381 1.71319C13.5451 1.5491 13.7677 1.45691 13.9998 1.45691C14.2318 1.45691 14.4544 1.5491 14.6185 1.71319C14.7826 1.87729 14.8748 2.09984 14.8748 2.33191V5.83191C14.8747 6.06395 14.7825 6.28648 14.6184 6.45056C14.4543 6.61464 14.2318 6.70685 13.9998 6.70691Z" fill="#F1AE15"/>
<path d="M19.8289 6.70691C19.5968 6.70685 19.3743 6.61464 19.2102 6.45056C19.0461 6.28648 18.9539 6.06395 18.9539 5.83191V2.33191C18.9539 2.09984 19.046 1.87729 19.2101 1.71319C19.3742 1.5491 19.5968 1.45691 19.8289 1.45691C20.0609 1.45691 20.2835 1.5491 20.4476 1.71319C20.6117 1.87729 20.7039 2.09984 20.7039 2.33191V5.83191C20.7038 6.06395 20.6116 6.28648 20.4475 6.45056C20.2834 6.61464 20.0609 6.70685 19.8289 6.70691Z" fill="#F1AE15"/>
</svg>
