<svg width="34" height="37" viewBox="0 0 34 37" fill="none" xmlns="http://www.w3.org/2000/svg">
<g filter="url(#filter0_d_86_1241)">
<path d="M24.9375 6.44975V4.49976C24.9375 3.98726 24.5125 3.56226 24 3.56226C23.4875 3.56226 23.0625 3.98726 23.0625 4.49976V6.37476L14.9375 6.37476V4.49976C14.9375 3.98726 14.5125 3.56226 14 3.56226C13.4875 3.56226 13.0625 3.98726 13.0625 4.49976V6.44975C9.68754 6.76225 8.05004 8.77475 7.80004 11.7623C7.77504 12.1248 8.07504 12.4248 8.42504 12.4248L29.575 12.4248C29.9375 12.4248 30.2375 12.1123 30.2 11.7623C29.95 8.77475 28.3125 6.76225 24.9375 6.44975Z" fill="#4E4F6C"/>
<path opacity="0.4" d="M29 14.3C29.6875 14.3 30.25 14.8625 30.25 15.55V23.2501C30.25 27.0001 28.375 29.5001 24 29.5001H14C9.625 29.5001 7.75 27.0001 7.75 23.2501L7.75 15.55C7.75 14.8625 8.3125 14.3 9 14.3L29 14.3Z" fill="#4E4F6C"/>
<path d="M14.625 20.7498C14.3 20.7498 13.975 20.6123 13.7375 20.3873C13.5125 20.1498 13.375 19.8248 13.375 19.4998C13.375 19.1748 13.5125 18.8499 13.7375 18.6124C14.0875 18.2624 14.6375 18.1498 15.1 18.3498C15.2625 18.4123 15.4 18.4999 15.5125 18.6124C15.7375 18.8499 15.875 19.1748 15.875 19.4998C15.875 19.8248 15.7375 20.1498 15.5125 20.3873C15.275 20.6123 14.95 20.7498 14.625 20.7498Z" fill="#22234A"/>
<path d="M19.0002 20.7498C18.6752 20.7498 18.3502 20.6123 18.1127 20.3873C17.8877 20.1498 17.7502 19.8248 17.7502 19.4998C17.7502 19.1748 17.8877 18.8499 18.1127 18.6124C18.2252 18.4999 18.3627 18.4123 18.5252 18.3498C18.9877 18.1498 19.5377 18.2624 19.8877 18.6124C20.1127 18.8499 20.2502 19.1748 20.2502 19.4998C20.2502 19.8248 20.1127 20.1498 19.8877 20.3873C19.8252 20.4373 19.7627 20.4873 19.7002 20.5373C19.6252 20.5873 19.5502 20.6249 19.4752 20.6499C19.4002 20.6874 19.3252 20.7124 19.2502 20.7249C19.1627 20.7374 19.0877 20.7498 19.0002 20.7498Z" fill="#22234A"/>
<path d="M23.375 20.75C23.05 20.75 22.725 20.6125 22.4875 20.3875C22.2625 20.15 22.125 19.825 22.125 19.5C22.125 19.175 22.2625 18.85 22.4875 18.6125C22.6125 18.5 22.7375 18.4125 22.9 18.35C23.125 18.25 23.375 18.225 23.625 18.275C23.7 18.2875 23.775 18.3125 23.85 18.35C23.925 18.375 24 18.4125 24.075 18.4625C24.1375 18.5125 24.2 18.5625 24.2625 18.6125C24.4875 18.85 24.625 19.175 24.625 19.5C24.625 19.825 24.4875 20.15 24.2625 20.3875C24.2 20.4375 24.1375 20.4875 24.075 20.5375C24 20.5875 23.925 20.625 23.85 20.65C23.775 20.6875 23.7 20.7125 23.625 20.725C23.5375 20.7375 23.45 20.75 23.375 20.75Z" fill="#22234A"/>
<path d="M14.625 25.1253C14.4625 25.1253 14.3 25.0878 14.15 25.0253C13.9875 24.9628 13.8625 24.8752 13.7375 24.7627C13.5125 24.5252 13.375 24.2003 13.375 23.8753C13.375 23.5503 13.5125 23.2253 13.7375 22.9878C13.8625 22.8753 13.9875 22.7877 14.15 22.7252C14.375 22.6252 14.625 22.6002 14.875 22.6502C14.95 22.6627 15.025 22.6877 15.1 22.7252C15.175 22.7502 15.25 22.7878 15.325 22.8378C15.3875 22.8878 15.45 22.9378 15.5125 22.9878C15.7375 23.2253 15.875 23.5503 15.875 23.8753C15.875 24.2003 15.7375 24.5252 15.5125 24.7627C15.45 24.8127 15.3875 24.8752 15.325 24.9127C15.25 24.9627 15.175 25.0003 15.1 25.0253C15.025 25.0628 14.95 25.0878 14.875 25.1003C14.7875 25.1128 14.7125 25.1253 14.625 25.1253Z" fill="#22234A"/>
<path d="M19.0002 25.125C18.6752 25.125 18.3502 24.9875 18.1127 24.7625C17.8877 24.525 17.7502 24.2 17.7502 23.875C17.7502 23.55 17.8877 23.225 18.1127 22.9875C18.5752 22.525 19.4252 22.525 19.8877 22.9875C20.1127 23.225 20.2502 23.55 20.2502 23.875C20.2502 24.2 20.1127 24.525 19.8877 24.7625C19.6502 24.9875 19.3252 25.125 19.0002 25.125Z" fill="#22234A"/>
<path d="M23.375 25.125C23.05 25.125 22.725 24.9875 22.4875 24.7625C22.2625 24.525 22.125 24.2 22.125 23.875C22.125 23.55 22.2625 23.225 22.4875 22.9875C22.95 22.525 23.8 22.525 24.2625 22.9875C24.4875 23.225 24.625 23.55 24.625 23.875C24.625 24.2 24.4875 24.525 24.2625 24.7625C24.025 24.9875 23.7 25.125 23.375 25.125Z" fill="#22234A"/>
</g>
<defs>
<filter id="filter0_d_86_1241" x="-3" y="-1" width="40" height="40" filterUnits="userSpaceOnUse" color-interpolation-filters="sRGB">
<feFlood flood-opacity="0" result="BackgroundImageFix"/>
<feColorMatrix in="SourceAlpha" type="matrix" values="0 0 0 0 0 0 0 0 0 0 0 0 0 0 0 0 0 0 127 0" result="hardAlpha"/>
<feOffset dx="-2" dy="2"/>
<feGaussianBlur stdDeviation="2.5"/>
<feComposite in2="hardAlpha" operator="out"/>
<feColorMatrix type="matrix" values="0 0 0 0 0 0 0 0 0 0 0 0 0 0 0 0 0 0 0.15 0"/>
<feBlend mode="normal" in2="BackgroundImageFix" result="effect1_dropShadow_86_1241"/>
<feBlend mode="normal" in="SourceGraphic" in2="effect1_dropShadow_86_1241" result="shape"/>
</filter>
</defs>
</svg>
