<svg width="64" height="64" viewBox="0 0 64 64" fill="none" xmlns="http://www.w3.org/2000/svg">
<path d="M71.418 50.7877C71.418 42.9184 69.0138 35.2368 64.5273 28.7716L55.4261 35.0874C58.6256 39.6979 60.3401 45.1759 60.3401 50.7877H71.418Z" fill="#00A578"/>
<path d="M62.8359 26.7598C56.3401 18.8417 45.9966 13.1771 35.8044 12.1714V23.1958C43.0728 23.913 49.6221 27.5492 54.2545 33.1958L62.8359 26.7598Z" fill="#F1AE15"/>
<path d="M32.8017 12.1714C27.7305 12.1714 22.709 13.1702 18.0238 15.1109C13.3387 17.0515 9.08163 19.896 5.49577 23.4819C1.90991 27.0677 -0.934552 31.3248 -2.8752 36.0099C-4.81586 40.6951 -5.8147 45.7166 -5.8147 50.7877L5.26323 50.7877C5.26323 47.1713 5.97553 43.5904 7.35946 40.2492C8.7434 36.9081 10.7719 33.8723 13.329 31.3151C15.8862 28.758 18.922 26.7295 22.2632 25.3455C25.6043 23.9616 29.1853 23.2493 32.8017 23.2493V12.1714Z" fill="#FC5371"/>
</svg>
