<svg width="28" height="28" viewBox="0 0 28 28" fill="none" xmlns="http://www.w3.org/2000/svg">
<path d="M8.55004 19.4083V16.9749C8.55004 16.1666 9.18337 15.4416 10.0834 15.4416C10.8917 15.4416 11.6167 16.0749 11.6167 16.9749V19.3166C11.6167 20.9416 10.2667 22.2916 8.64171 22.2916C7.01671 22.2916 5.66671 20.9333 5.66671 19.3166V14.1833C5.57504 9.49992 9.27504 5.70825 13.9584 5.70825C18.6417 5.70825 22.3334 9.49992 22.3334 14.0916V19.2249C22.3334 20.8499 20.9834 22.1999 19.3584 22.1999C17.7334 22.1999 16.3834 20.8499 16.3834 19.2249V16.8833C16.3834 16.0749 17.0167 15.3499 17.9167 15.3499C18.725 15.3499 19.45 15.9833 19.45 16.8833V19.4083" stroke="#727E94" stroke-width="1.5" stroke-linecap="round" stroke-linejoin="round"/>
</svg>
