<svg width="28" height="28" viewBox="0 0 28 28" fill="none" xmlns="http://www.w3.org/2000/svg">
<path d="M14.0033 27.533C21.4776 27.533 27.5366 21.4739 27.5366 13.9996C27.5366 6.52539 21.4776 0.466309 14.0033 0.466309C6.52905 0.466309 0.469971 6.52539 0.469971 13.9996C0.469971 21.4739 6.52905 27.533 14.0033 27.533Z" fill="#ECF0F3"/>
<g filter="url(#filter0_d_1_5326)">
<path d="M14.0021 25.6672C20.4454 25.6672 25.6688 20.4439 25.6688 14.0005C25.6688 7.55721 20.4454 2.33386 14.0021 2.33386C7.55879 2.33386 2.33545 7.55721 2.33545 14.0005C2.33545 20.4439 7.55879 25.6672 14.0021 25.6672Z" fill="#F1F2FC"/>
</g>
<path d="M9.71812 9.71639C8.77638 10.6486 8.16931 11.866 7.99146 13.1791C7.96446 13.4027 7.85745 13.6091 7.6902 13.7601C7.52294 13.911 7.30673 13.9964 7.08146 14.0004H2.33546C2.33385 12.4683 2.63524 10.951 3.2223 9.53579C3.80936 8.12061 4.67048 6.83549 5.75612 5.75439L8.40212 7.00039L9.71812 9.71639Z" fill="#FC5371"/>
<path d="M13.9982 2.33387L14.4649 5.13387L13.9982 7.93387C13.2018 7.93342 12.4132 8.09073 11.6779 8.3967C10.9426 8.70267 10.2752 9.15124 9.7142 9.71654L5.7522 5.75454C6.83329 4.6689 8.11841 3.80777 9.53359 3.22071C10.9488 2.63366 12.4661 2.33226 13.9982 2.33387Z" fill="#EBB7CC"/>
<path d="M22.246 5.75405L21 7.93338L18.2607 9.74405L17.7473 9.23071C16.6795 8.38945 15.3594 7.93243 14 7.93338V2.33338C15.5321 2.33177 17.0494 2.63317 18.4646 3.22022C19.8798 3.80728 21.1649 4.66841 22.246 5.75405Z" fill="#00A578"/>
<path d="M25.6675 14.0003H20.9215C20.6962 13.9963 20.48 13.9109 20.3127 13.7599C20.1455 13.609 20.0385 13.4026 20.0115 13.1789C19.8653 12.1105 19.4368 11.1005 18.7701 10.2529L18.2615 9.74427L22.2468 5.75427C23.3324 6.83537 24.1936 8.12048 24.7806 9.53567C25.3677 10.9508 25.6691 12.4682 25.6675 14.0003Z" fill="#006352"/>
<path d="M15.3232 15.3169C15.1498 15.4902 14.944 15.6277 14.7176 15.7215C14.4911 15.8153 14.2483 15.8636 14.0032 15.8636C13.758 15.8636 13.5153 15.8153 13.2888 15.7215C13.0623 15.6277 12.8566 15.4902 12.6832 15.3169C12.5099 15.1435 12.3724 14.9377 12.2786 14.7112C12.1848 14.4848 12.1365 14.242 12.1365 13.9969C12.1365 13.7517 12.1848 13.509 12.2786 13.2825C12.3724 13.056 12.5099 12.8503 12.6832 12.6769C13.6632 11.6969 17.3662 9.44339 19.2166 8.34205C19.2778 8.30548 19.3496 8.2904 19.4204 8.2992C19.4912 8.30801 19.5571 8.34019 19.6076 8.39066C19.658 8.44112 19.6902 8.50698 19.699 8.57781C19.7078 8.64863 19.6927 8.72037 19.6562 8.78166C18.5567 10.6339 16.3036 14.3364 15.3232 15.3169Z" fill="#4E4F6C"/>
<path d="M11.9916 17.8696C11.9041 17.7822 11.7854 17.733 11.6617 17.733C11.538 17.733 11.4193 17.7822 11.3318 17.8696L10.2617 18.9397V18.1996C10.2617 18.0758 10.2125 17.9571 10.125 17.8696C10.0375 17.7821 9.9188 17.7329 9.79504 17.7329C9.67127 17.7329 9.55257 17.7821 9.46505 17.8696C9.37754 17.9571 9.32837 18.0758 9.32837 18.1996V21.9329C9.32837 22.0567 9.37754 22.1754 9.46505 22.2629C9.55257 22.3504 9.67127 22.3996 9.79504 22.3996C9.9188 22.3996 10.0375 22.3504 10.125 22.2629C10.2125 22.1754 10.2617 22.0567 10.2617 21.9329V21.1928L11.3318 22.2628C11.4198 22.3479 11.5377 22.3949 11.66 22.3938C11.7824 22.3928 11.8994 22.3437 11.986 22.2572C12.0725 22.1706 12.1216 22.0536 12.1226 21.9312C12.1237 21.8089 12.0766 21.691 11.9916 21.603L10.4549 20.0662L11.9916 18.5295C12.0791 18.442 12.1283 18.3233 12.1283 18.1996C12.1283 18.0758 12.0791 17.9572 11.9916 17.8696Z" fill="#727E94"/>
<path d="M17.265 17.7329C17.1412 17.7329 17.0225 17.7821 16.935 17.8696C16.8475 17.9571 16.7983 18.0758 16.7983 18.1996V21.9329C16.7983 22.0567 16.8475 22.1754 16.935 22.2629C17.0225 22.3504 17.1412 22.3996 17.265 22.3996C17.3888 22.3996 17.5075 22.3504 17.595 22.2629C17.6825 22.1754 17.7317 22.0567 17.7317 21.9329V18.1996C17.7317 18.0758 17.6825 17.9571 17.595 17.8696C17.5075 17.7821 17.3888 17.7329 17.265 17.7329Z" fill="#727E94"/>
<path d="M14.4593 17.7329H13.526C13.4022 17.7329 13.2835 17.7821 13.196 17.8696C13.1085 17.9571 13.0593 18.0758 13.0593 18.1996V21.9329C13.0593 22.0567 13.1085 22.1754 13.196 22.2629C13.2835 22.3504 13.4022 22.3996 13.526 22.3996C13.6498 22.3996 13.7685 22.3504 13.856 22.2629C13.9435 22.1754 13.9927 22.0567 13.9927 21.9329V20.5329H14.4593C14.8306 20.5329 15.1867 20.3854 15.4493 20.1229C15.7118 19.8603 15.8593 19.5042 15.8593 19.1329C15.8593 18.7616 15.7118 18.4055 15.4493 18.143C15.1867 17.8804 14.8306 17.7329 14.4593 17.7329ZM14.4593 19.5996H13.9927V18.6662H14.4593C14.5831 18.6662 14.7018 18.7154 14.7893 18.8029C14.8768 18.8904 14.926 19.0091 14.926 19.1329C14.926 19.2567 14.8768 19.3754 14.7893 19.4629C14.7018 19.5504 14.5831 19.5996 14.4593 19.5996Z" fill="#727E94"/>
<defs>
<filter id="filter0_d_1_5326" x="2.33545" y="2.33386" width="23.3333" height="23.9167" filterUnits="userSpaceOnUse" color-interpolation-filters="sRGB">
<feFlood flood-opacity="0" result="BackgroundImageFix"/>
<feColorMatrix in="SourceAlpha" type="matrix" values="0 0 0 0 0 0 0 0 0 0 0 0 0 0 0 0 0 0 127 0" result="hardAlpha"/>
<feOffset dy="0.583333"/>
<feComposite in2="hardAlpha" operator="out"/>
<feColorMatrix type="matrix" values="0 0 0 0 0 0 0 0 0 0 0 0 0 0 0 0 0 0 0.25 0"/>
<feBlend mode="normal" in2="BackgroundImageFix" result="effect1_dropShadow_1_5326"/>
<feBlend mode="normal" in="SourceGraphic" in2="effect1_dropShadow_1_5326" result="shape"/>
</filter>
</defs>
</svg>
