<svg width="28" height="28" viewBox="0 0 28 28" fill="none" xmlns="http://www.w3.org/2000/svg">
<path d="M23.3091 9.58781L21.875 12.4565L20.4404 9.58781L17.3972 10.6024L18.4117 7.55912L15.5431 6.125L17.2935 5.25H7V24.5C7 25.4664 6.21644 26.25 5.25 26.25H22.75C23.7164 26.25 24.5 25.4664 24.5 24.5V9.98506L23.3091 9.58781Z" fill="#F0F0F0"/>
<path d="M5.25 26.25C4.28356 26.25 3.5 25.4664 3.5 24.5V7.875H7V24.5C7 25.4664 6.21644 26.25 5.25 26.25Z" fill="#D2D2D2"/>
<path d="M8.75 10.5H14.875V16.625H8.75V10.5Z" fill="#008C78"/>
<path d="M8.75 14.875V16.625H14L10.5 13.125L8.75 14.875Z" fill="#1EAA96"/>
<path d="M13.125 13.125L9.625 16.625H14.875V14.875L13.125 13.125Z" fill="#3CC8B4"/>
<path d="M11.8125 13.125C11.3291 13.125 10.9375 12.7334 10.9375 12.25C10.9375 11.7666 11.3291 11.375 11.8125 11.375C12.2959 11.375 12.6875 11.7666 12.6875 12.25C12.6875 12.7334 12.2959 13.125 11.8125 13.125Z" fill="#FAB400"/>
<path d="M15.75 14H22.75V14.875H15.75V14Z" fill="#D2D2D2"/>
<path d="M15.75 15.75H22.75V16.625H15.75V15.75Z" fill="#D2D2D2"/>
<path d="M8.75 17.5H22.75V18.375H8.75V17.5Z" fill="#D2D2D2"/>
<path d="M8.75 19.25H22.75V20.125H8.75V19.25Z" fill="#D2D2D2"/>
<path d="M8.75 21H22.75V21.875H8.75V21Z" fill="#D2D2D2"/>
<path d="M8.75 22.75H22.75V23.625H8.75V22.75Z" fill="#D2D2D2"/>
<path d="M17.7052 10.5L17.3976 10.6024L17.4318 10.5H15.75V11.375H21.3342L20.8967 10.5H17.7052Z" fill="#D2D2D2"/>
<path d="M21.7717 12.25H15.75V13.125H22.75V12.25H21.9783L21.875 12.4565L21.7717 12.25Z" fill="#D2D2D2"/>
<path d="M17.2935 7H8.75V8.75H18.0149L18.4122 7.55912L17.2935 7Z" fill="#FAB400"/>
<path d="M24.9467 6.77688L26.25 6.125L24.9467 5.47312C24.5573 5.27844 24.3701 4.82694 24.5079 4.41394L24.9686 3.03144L23.5861 3.49212C23.1731 3.62994 22.7216 3.44269 22.5269 3.05331L21.875 1.75L21.2231 3.05331C21.0284 3.44269 20.5769 3.62994 20.1639 3.49212L18.7814 3.03144L19.2421 4.41394C19.3799 4.82694 19.1927 5.27844 18.8033 5.47312L17.5 6.125L18.8033 6.77688C19.1927 6.97156 19.3799 7.42306 19.2421 7.83606L18.7814 9.21856L20.1639 8.75787C20.5769 8.62006 21.0284 8.80731 21.2231 9.19669L21.875 10.5L22.5269 9.19669C22.7216 8.80731 23.1731 8.62006 23.5861 8.75787L24.9686 9.21856L24.5079 7.83606C24.3701 7.42306 24.5569 6.97156 24.9467 6.77688Z" fill="#FA6450"/>
<path d="M19.6783 6.77693L18.375 6.12506L19.6783 5.47318C20.0677 5.27849 20.2549 4.82699 20.1171 4.41399L19.7658 3.35962L18.7814 3.03149L19.2421 4.41399C19.3799 4.82699 19.1927 5.27849 18.8033 5.47318L17.5 6.12506L18.8033 6.77693C19.1927 6.97162 19.3799 7.42312 19.2421 7.83612L18.7814 9.21862L19.7658 8.89049L20.1171 7.83612C20.2549 7.42312 20.0681 6.97162 19.6783 6.77693Z" fill="#DC4632"/>
<path d="M21.875 6.5625C21.6335 6.5625 21.4375 6.3665 21.4375 6.125V4.375C21.4375 4.1335 21.6335 3.9375 21.875 3.9375C22.1165 3.9375 22.3125 4.1335 22.3125 4.375V6.125C22.3125 6.3665 22.1165 6.5625 21.875 6.5625Z" fill="#F0F0F0"/>
<path d="M21.875 8.3125C21.6335 8.3125 21.4375 8.1165 21.4375 7.875C21.4375 7.6335 21.6335 7.4375 21.875 7.4375C22.1165 7.4375 22.3125 7.6335 22.3125 7.875C22.3125 8.1165 22.1165 8.3125 21.875 8.3125Z" fill="#F0F0F0"/>
</svg>
