<svg width="28" height="28" viewBox="0 0 28 28" fill="none" xmlns="http://www.w3.org/2000/svg">
<path d="M25.27 12.18L24.1267 17.0566C23.1467 21.2683 21.21 22.9716 17.57 22.6216C16.9867 22.575 16.3567 22.47 15.68 22.3066L13.72 21.84C8.85501 20.685 7.35001 18.2816 8.49334 13.405L9.63667 8.51664C9.87001 7.52497 10.15 6.66164 10.5 5.94997C11.865 3.12664 14.1867 2.3683 18.0833 3.28997L20.0317 3.74497C24.92 4.8883 26.4133 7.3033 25.27 12.18Z" stroke="#4E4F6C" stroke-width="1.5" stroke-linecap="round" stroke-linejoin="round"/>
<path d="M17.57 22.6216C16.8467 23.1116 15.9367 23.52 14.8283 23.8816L12.985 24.4883C8.35334 25.9816 5.915 24.7333 4.41 20.1016L2.91667 15.4933C1.42333 10.8616 2.66 8.41162 7.29167 6.91828L9.135 6.31162C9.61333 6.15995 10.0683 6.03162 10.5 5.94995C10.15 6.66162 9.87 7.52495 9.63667 8.51662L8.49334 13.405C7.35 18.2816 8.855 20.685 13.72 21.84L15.68 22.3066C16.3567 22.47 16.9867 22.575 17.57 22.6216Z" stroke="#4E4F6C" stroke-width="1.5" stroke-linecap="round" stroke-linejoin="round"/>
<path d="M14.7467 9.95166L20.405 11.3867" stroke="#4E4F6C" stroke-width="1.5" stroke-linecap="round" stroke-linejoin="round"/>
<path d="M13.6033 14.4667L16.9867 15.33" stroke="#4E4F6C" stroke-width="1.5" stroke-linecap="round" stroke-linejoin="round"/>
</svg>
