<svg width="32" height="36" viewBox="0 0 32 36" fill="none" xmlns="http://www.w3.org/2000/svg">
<g filter="url(#filter0_d_86_1233)">
<path opacity="0.4" d="M26.1752 19.548L24.9252 17.473C24.6627 17.0105 24.4252 16.1355 24.4252 15.623V12.4605C24.4252 8.38555 21.1127 5.06055 17.0252 5.06055C12.9377 5.06055 9.62517 8.38555 9.62517 12.4605V15.623C9.62517 16.1355 9.38767 17.0105 9.12517 17.4605L7.86267 19.548C7.36267 20.3855 7.25017 21.3105 7.56267 22.1605C7.86267 22.998 8.57517 23.6481 9.50017 23.9606C11.9252 24.7855 14.4752 25.1855 17.0252 25.1855C19.5752 25.1855 22.1252 24.7855 24.5502 23.973C25.4252 23.6856 26.1002 23.023 26.4252 22.1605C26.7502 21.298 26.6627 20.348 26.1752 19.548Z" fill="#4E4F6C"/>
<path d="M19.8125 5.58555C18.95 5.24805 18.0125 5.06055 17.025 5.06055C16.05 5.06055 15.1125 5.23555 14.25 5.58555C14.7875 4.57305 15.85 3.93555 17.025 3.93555C18.2125 3.93555 19.2625 4.57305 19.8125 5.58555Z" fill="#22234A"/>
<path d="M20.5376 26.448C20.0126 27.898 18.6251 28.9355 17.0001 28.9355C16.0126 28.9355 15.0376 28.5355 14.3501 27.823C13.9501 27.448 13.6501 26.948 13.4751 26.4355C13.6376 26.4605 13.8001 26.473 13.9751 26.498C14.2626 26.5355 14.5626 26.573 14.8626 26.598C15.5751 26.6605 16.3001 26.698 17.0251 26.698C17.7376 26.698 18.4501 26.6605 19.1501 26.598C19.4126 26.573 19.6751 26.5605 19.9251 26.523C20.1251 26.498 20.3251 26.473 20.5376 26.448Z" fill="#22234A"/>
</g>
<defs>
<filter id="filter0_d_86_1233" x="-5" y="-1.56445" width="40" height="40" filterUnits="userSpaceOnUse" color-interpolation-filters="sRGB">
<feFlood flood-opacity="0" result="BackgroundImageFix"/>
<feColorMatrix in="SourceAlpha" type="matrix" values="0 0 0 0 0 0 0 0 0 0 0 0 0 0 0 0 0 0 127 0" result="hardAlpha"/>
<feOffset dx="-2" dy="2"/>
<feGaussianBlur stdDeviation="2.5"/>
<feComposite in2="hardAlpha" operator="out"/>
<feColorMatrix type="matrix" values="0 0 0 0 0 0 0 0 0 0 0 0 0 0 0 0 0 0 0.15 0"/>
<feBlend mode="normal" in2="BackgroundImageFix" result="effect1_dropShadow_86_1233"/>
<feBlend mode="normal" in="SourceGraphic" in2="effect1_dropShadow_86_1233" result="shape"/>
</filter>
</defs>
</svg>
