<svg width="25" height="24" viewBox="0 0 25 24" fill="none" xmlns="http://www.w3.org/2000/svg">
<path d="M12.5201 2.91003C9.21009 2.91003 6.52009 5.60003 6.52009 8.91003V11.8C6.52009 12.41 6.26009 13.34 5.95009 13.86L4.80009 15.77C4.09009 16.95 4.58009 18.26 5.88009 18.7C10.1901 20.14 14.8401 20.14 19.1501 18.7C20.3601 18.3 20.8901 16.87 20.2301 15.77L19.0801 13.86C18.7801 13.34 18.5201 12.41 18.5201 11.8V8.91003C18.5201 5.61003 15.8201 2.91003 12.5201 2.91003Z" stroke="#292D32" stroke-width="1.5" stroke-miterlimit="10" stroke-linecap="round"/>
<path d="M14.3699 3.19994C14.0599 3.10994 13.7399 3.03994 13.4099 2.99994C12.4499 2.87994 11.5299 2.94994 10.6699 3.19994C10.9599 2.45994 11.6799 1.93994 12.5199 1.93994C13.3599 1.93994 14.0799 2.45994 14.3699 3.19994Z" stroke="#292D32" stroke-width="1.5" stroke-miterlimit="10" stroke-linecap="round" stroke-linejoin="round"/>
<path d="M15.52 19.0601C15.52 20.7101 14.17 22.0601 12.52 22.0601C11.7 22.0601 10.94 21.7201 10.4 21.1801C9.86002 20.6401 9.52002 19.8801 9.52002 19.0601" stroke="#292D32" stroke-width="1.5" stroke-miterlimit="10"/>
</svg>
