<svg width="24" height="24" viewBox="0 0 24 24" fill="none" xmlns="http://www.w3.org/2000/svg">
<g clip-path="url(#clip0_1_5410)">
<path d="M12 24C18.6274 24 24 18.6274 24 12C24 5.37258 18.6274 0 12 0C5.37258 0 0 5.37258 0 12C0 18.6274 5.37258 24 12 24Z" fill="#00A578"/>
<path fill-rule="evenodd" clip-rule="evenodd" d="M12.9202 10.7508V4.95109C12.9185 4.70822 12.8208 4.47589 12.6484 4.30476C12.4761 4.13363 12.243 4.0376 12.0002 4.0376C11.7573 4.0376 11.5243 4.13363 11.3519 4.30476C11.1796 4.47589 11.0819 4.70822 11.0801 4.95109V10.7508C11.0819 10.9937 11.1796 11.226 11.3519 11.3971C11.5243 11.5683 11.7573 11.6643 12.0002 11.6643C12.243 11.6643 12.4761 11.5683 12.6484 11.3971C12.8208 11.226 12.9185 10.9937 12.9202 10.7508ZM19.9688 12C19.9686 13.3964 19.6016 14.7683 18.9043 15.9782C18.207 17.1881 17.2041 18.1935 15.9959 18.8937C14.7878 19.594 13.4168 19.9644 12.0204 19.968C10.6239 19.9716 9.2511 19.6081 8.03937 18.9141C6.82763 18.22 5.81956 17.2197 5.11613 16.0134C4.4127 14.8071 4.03862 13.4371 4.03136 12.0407C4.0241 10.6443 4.38391 9.27049 5.07476 8.05693C5.7656 6.84336 6.76322 5.83265 7.96767 5.12603C8.10907 5.04307 8.26986 4.99892 8.43379 4.99805C8.59772 4.99717 8.75897 5.0396 8.90124 5.12104C9.04351 5.20248 9.16176 5.32004 9.24402 5.46184C9.32628 5.60364 9.36963 5.76465 9.3697 5.92858C9.3697 6.28998 9.22842 6.58117 8.91253 6.76797C8.00353 7.30595 7.25017 8.07123 6.72652 8.98856C6.20286 9.90589 5.92693 10.9437 5.92584 12C5.92584 15.3494 8.65097 18.0743 12 18.0743C15.349 18.0743 18.0746 15.3494 18.0746 12C18.0735 10.9437 17.7975 9.90591 17.2739 8.98859C16.7502 8.07127 15.9969 7.30599 15.0879 6.76797C14.9473 6.68734 14.8307 6.57058 14.7503 6.42979C14.6699 6.289 14.6286 6.12928 14.6306 5.96716C14.6306 5.6012 14.7766 5.3057 15.0991 5.12083C15.2407 5.03736 15.4022 4.99378 15.5666 4.99472C15.7309 4.99565 15.892 5.04106 16.0326 5.12612C17.2301 5.83034 18.2231 6.83486 18.9134 8.04041C19.6037 9.24595 19.9675 10.6108 19.9688 12Z" fill="white"/>
</g>
<defs>
<clipPath id="clip0_1_5410">
<rect width="24" height="24" fill="white"/>
</clipPath>
</defs>
</svg>
