<svg width="20" height="20" viewBox="0 0 20 20" fill="none" xmlns="http://www.w3.org/2000/svg">
<path d="M15.8332 13.9583C15.4915 13.9583 15.2082 13.675 15.2082 13.3333V5.41667C15.2082 4.84167 14.7415 4.375 14.1665 4.375H10.4165C10.0748 4.375 9.7915 4.09167 9.7915 3.75C9.7915 3.40833 10.0748 3.125 10.4165 3.125H14.1665C15.4332 3.125 16.4582 4.15 16.4582 5.41667V13.3333C16.4582 13.675 16.1748 13.9583 15.8332 13.9583Z" fill="#727E94"/>
<path d="M12.5 6.45827C12.3583 6.45827 12.2167 6.40828 12.1 6.31661L9.60002 4.23328C9.45835 4.11661 9.375 3.94161 9.375 3.74994C9.375 3.55827 9.45835 3.39161 9.60002 3.26661L12.1 1.18327C12.3667 0.958273 12.7583 0.999944 12.9833 1.26661C13.2083 1.53328 13.1667 1.92494 12.9 2.14994L10.975 3.74994L12.9 5.34994C13.1667 5.57494 13.2 5.9666 12.9833 6.23327C12.8583 6.38327 12.675 6.45827 12.5 6.45827Z" fill="#727E94"/>
<path d="M4.1665 13.9583C3.82484 13.9583 3.5415 13.675 3.5415 13.3333V7.5C3.5415 7.15833 3.82484 6.875 4.1665 6.875C4.50817 6.875 4.7915 7.15833 4.7915 7.5V13.3333C4.7915 13.675 4.50817 13.9583 4.1665 13.9583Z" fill="#727E94"/>
<path d="M4.37484 7.70842C2.53317 7.70842 1.0415 6.21675 1.0415 4.37508C1.0415 2.53341 2.53317 1.04175 4.37484 1.04175C6.2165 1.04175 7.70817 2.53341 7.70817 4.37508C7.70817 6.21675 6.2165 7.70842 4.37484 7.70842ZM4.37484 2.29175C3.22484 2.29175 2.2915 3.22508 2.2915 4.37508C2.2915 5.52508 3.22484 6.45842 4.37484 6.45842C5.52484 6.45842 6.45817 5.52508 6.45817 4.37508C6.45817 3.22508 5.52484 2.29175 4.37484 2.29175Z" fill="#727E94"/>
<path d="M4.1665 18.9583C2.4415 18.9583 1.0415 17.5583 1.0415 15.8333C1.0415 14.1083 2.4415 12.7083 4.1665 12.7083C5.8915 12.7083 7.2915 14.1083 7.2915 15.8333C7.2915 17.5583 5.8915 18.9583 4.1665 18.9583ZM4.1665 13.9583C3.13317 13.9583 2.2915 14.7999 2.2915 15.8333C2.2915 16.8666 3.13317 17.7083 4.1665 17.7083C5.19984 17.7083 6.0415 16.8666 6.0415 15.8333C6.0415 14.7999 5.19984 13.9583 4.1665 13.9583Z" fill="#727E94"/>
<path d="M15.8335 18.9583C14.1085 18.9583 12.7085 17.5583 12.7085 15.8333C12.7085 14.1083 14.1085 12.7083 15.8335 12.7083C17.5585 12.7083 18.9585 14.1083 18.9585 15.8333C18.9585 17.5583 17.5585 18.9583 15.8335 18.9583ZM15.8335 13.9583C14.8002 13.9583 13.9585 14.7999 13.9585 15.8333C13.9585 16.8666 14.8002 17.7083 15.8335 17.7083C16.8668 17.7083 17.7085 16.8666 17.7085 15.8333C17.7085 14.7999 16.8668 13.9583 15.8335 13.9583Z" fill="#727E94"/>
</svg>
