<svg width="17" height="16" viewBox="0 0 17 16" fill="none" xmlns="http://www.w3.org/2000/svg">
<circle cx="8.875" cy="8" r="8" fill="#FF2441"/>
<path d="M9.81409 7.99943L12.678 5.14179C12.8034 5.01635 12.8739 4.84623 12.8739 4.66884C12.8739 4.49146 12.8034 4.32133 12.678 4.1959C12.5526 4.07047 12.3825 4 12.2051 4C12.0278 4 11.8577 4.07047 11.7322 4.1959L8.875 7.06021L6.01776 4.1959C5.89235 4.07047 5.72225 4 5.54488 4C5.36752 4 5.19742 4.07047 5.07201 4.1959C4.94659 4.32133 4.87614 4.49146 4.87614 4.66884C4.87614 4.84623 4.94659 5.01635 5.07201 5.14179L7.93591 7.99943L5.07201 10.8571C5.00958 10.919 4.96004 10.9927 4.92622 11.0738C4.89241 11.155 4.875 11.2421 4.875 11.33C4.875 11.418 4.89241 11.505 4.92622 11.5862C4.96004 11.6674 5.00958 11.741 5.07201 11.803C5.13392 11.8654 5.20759 11.915 5.28875 11.9488C5.36991 11.9826 5.45696 12 5.54488 12C5.63281 12 5.71986 11.9826 5.80102 11.9488C5.88218 11.915 5.95585 11.8654 6.01776 11.803L8.875 8.93866L11.7322 11.803C11.7942 11.8654 11.8678 11.915 11.949 11.9488C12.0301 11.9826 12.1172 12 12.2051 12C12.293 12 12.3801 11.9826 12.4613 11.9488C12.5424 11.915 12.6161 11.8654 12.678 11.803C12.7404 11.741 12.79 11.6674 12.8238 11.5862C12.8576 11.505 12.875 11.418 12.875 11.33C12.875 11.2421 12.8576 11.155 12.8238 11.0738C12.79 10.9927 12.7404 10.919 12.678 10.8571L9.81409 7.99943Z" fill="white"/>
</svg>
