<svg width="28" height="28" viewBox="0 0 28 28" fill="none" xmlns="http://www.w3.org/2000/svg">
<path d="M14.1331 13.0584C14.0498 13.0501 13.9498 13.0501 13.8581 13.0584C11.8748 12.9917 10.2998 11.3667 10.2998 9.36675C10.2998 7.32508 11.9498 5.66675 13.9998 5.66675C16.0415 5.66675 17.6998 7.32508 17.6998 9.36675C17.6915 11.3667 16.1165 12.9917 14.1331 13.0584Z" stroke="#727E94" stroke-width="1.5" stroke-linecap="round" stroke-linejoin="round"/>
<path d="M9.9666 16.1333C7.94993 17.4833 7.94993 19.6833 9.9666 21.0249C12.2583 22.5583 16.0166 22.5583 18.3083 21.0249C20.3249 19.6749 20.3249 17.4749 18.3083 16.1333C16.0249 14.6083 12.2666 14.6083 9.9666 16.1333Z" stroke="#727E94" stroke-width="1.5" stroke-linecap="round" stroke-linejoin="round"/>
</svg>
