<svg width="20" height="20" viewBox="0 0 20 20" fill="none" xmlns="http://www.w3.org/2000/svg">
<path d="M16.2581 4.87502L11.3081 2.01669C10.4998 1.55002 9.49977 1.55002 8.68311 2.01669L3.74144 4.87502C2.93311 5.34169 2.43311 6.20835 2.43311 7.15002V12.85C2.43311 13.7834 2.93311 14.65 3.74144 15.125L8.69144 17.9834C9.49977 18.45 10.4998 18.45 11.3164 17.9834L16.2664 15.125C17.0748 14.6584 17.5748 13.7917 17.5748 12.85V7.15002C17.5664 6.20835 17.0664 5.35002 16.2581 4.87502ZM9.37477 6.45835C9.37477 6.11669 9.65811 5.83335 9.99977 5.83335C10.3414 5.83335 10.6248 6.11669 10.6248 6.45835V10.8334C10.6248 11.175 10.3414 11.4584 9.99977 11.4584C9.65811 11.4584 9.37477 11.175 9.37477 10.8334V6.45835ZM10.7664 13.8584C10.7248 13.9584 10.6664 14.05 10.5914 14.1334C10.4331 14.2917 10.2248 14.375 9.99977 14.375C9.89144 14.375 9.7831 14.35 9.6831 14.3084C9.57477 14.2667 9.49144 14.2084 9.40811 14.1334C9.33311 14.05 9.27477 13.9584 9.22477 13.8584C9.1831 13.7584 9.16644 13.65 9.16644 13.5417C9.16644 13.325 9.24977 13.1084 9.40811 12.95C9.49144 12.875 9.57477 12.8167 9.6831 12.775C9.99144 12.6417 10.3581 12.7167 10.5914 12.95C10.6664 13.0334 10.7248 13.1167 10.7664 13.225C10.8081 13.325 10.8331 13.4334 10.8331 13.5417C10.8331 13.65 10.8081 13.7584 10.7664 13.8584Z" fill="#FC5371"/>
</svg>
