<svg width="34" height="36" viewBox="0 0 34 36" fill="none" xmlns="http://www.w3.org/2000/svg">
<g filter="url(#filter0_d_86_1225)">
<path opacity="0.4" d="M30.35 11.7248V20.2748C30.35 21.6748 29.6 22.9748 28.3875 23.6873L20.9625 27.9748C19.75 28.6748 18.25 28.6748 17.025 27.9748L9.59996 23.6873C8.38746 22.9873 7.63745 21.6873 7.63745 20.2748V11.7248C7.63745 10.3248 8.38746 9.02475 9.59996 8.31225L17.025 4.02476C18.2375 3.32476 19.7375 3.32476 20.9625 4.02476L28.3875 8.31225C29.6 9.02475 30.35 10.3123 30.35 11.7248Z" fill="#00A578"/>
<path d="M19 18.1873C18.4875 18.1873 18.0625 17.7623 18.0625 17.2498V10.6873C18.0625 10.1748 18.4875 9.74976 19 9.74976C19.5125 9.74976 19.9375 10.1748 19.9375 10.6873V17.2498C19.9375 17.7623 19.5125 18.1873 19 18.1873Z" fill="#00A578"/>
<path d="M19 22.5623C18.8375 22.5623 18.675 22.5248 18.525 22.4623C18.3625 22.3998 18.2375 22.3124 18.1125 22.1999C18 22.0749 17.9125 21.9373 17.8375 21.7873C17.775 21.6373 17.75 21.4748 17.75 21.3123C17.75 20.9873 17.875 20.6623 18.1125 20.4248C18.2375 20.3123 18.3625 20.2248 18.525 20.1623C18.9875 19.9623 19.5375 20.0748 19.8875 20.4248C20 20.5498 20.0875 20.6748 20.15 20.8373C20.2125 20.9873 20.25 21.1498 20.25 21.3123C20.25 21.4748 20.2125 21.6373 20.15 21.7873C20.0875 21.9373 20 22.0749 19.8875 22.1999C19.65 22.4374 19.3375 22.5623 19 22.5623Z" fill="#00A578"/>
</g>
<defs>
<filter id="filter0_d_86_1225" x="-3" y="-2.00025" width="40" height="40" filterUnits="userSpaceOnUse" color-interpolation-filters="sRGB">
<feFlood flood-opacity="0" result="BackgroundImageFix"/>
<feColorMatrix in="SourceAlpha" type="matrix" values="0 0 0 0 0 0 0 0 0 0 0 0 0 0 0 0 0 0 127 0" result="hardAlpha"/>
<feOffset dx="-2" dy="2"/>
<feGaussianBlur stdDeviation="2.5"/>
<feComposite in2="hardAlpha" operator="out"/>
<feColorMatrix type="matrix" values="0 0 0 0 0 0 0 0 0 0 0 0 0 0 0 0 0 0 0.15 0"/>
<feBlend mode="normal" in2="BackgroundImageFix" result="effect1_dropShadow_86_1225"/>
<feBlend mode="normal" in="SourceGraphic" in2="effect1_dropShadow_86_1225" result="shape"/>
</filter>
</defs>
</svg>
